<svg xmlns="http://www.w3.org/2000/svg" viewBox="0 0 760 180" role="img" aria-labelledby="t d">
  <title id="t">Ghost FTP</title><desc id="d">Ghost FTP secure remote file client</desc>
  <defs>
    <linearGradient id="bg" x1="18" y1="14" x2="160" y2="166" gradientUnits="userSpaceOnUse"><stop stop-color="#6288ff"/><stop offset=".55" stop-color="#3d65e8"/><stop offset="1" stop-color="#2443ad"/></linearGradient>
  </defs>
  <rect x="8" y="8" width="164" height="164" rx="43" fill="url(#bg)"/>
  <path d="M52 44c0-8 6-14 14-14h48c18 0 33 15 33 33v50c0 23-18 42-42 42H66c-8 0-14-6-14-14V44Zm28 14v69h24c9 0 16-7 16-16V65c0-4-3-7-7-7H80Z" fill="#fff"/>
  <circle cx="101" cy="94" r="8" fill="#6288ff"/>
  <path d="M31 80h25v20H31l9 9-14 14-33-33 33-33 14 14-9 9Zm118 20h-23V80h23l-9-9 14-14 33 33-33 33-14-14 9-9Z" fill="#fff" opacity=".96"/>
  <text x="202" y="115" fill="#f8faff" font-family="Inter,ui-sans-serif,system-ui,-apple-system,BlinkMacSystemFont,'Segoe UI',sans-serif" font-size="76" font-weight="800" letter-spacing="-3">Ghost FTP</text>
  <text x="207" y="148" fill="#8f9aae" font-family="Inter,ui-sans-serif,system-ui,-apple-system,BlinkMacSystemFont,'Segoe UI',sans-serif" font-size="20" font-weight="650" letter-spacing="3.8">REMOTE FILE CLIENT</text>
</svg>
